# Blender v2.79 (sub 0) OBJ File: ''
# www.blender.org
o Sphere_Sphere.001
v -0.095671 -0.274545 -0.000000
v -0.176777 -0.210128 -0.000000
v -0.163320 -0.210128 -0.067649
v -0.088388 -0.274545 -0.036612
v -0.230970 0.113720 0.000000
v -0.176777 0.210128 0.000000
v -0.163320 0.210128 -0.067649
v -0.213388 0.113720 -0.088388
v -0.230970 -0.113720 -0.000000
v -0.213388 -0.113720 -0.088388
v -0.095671 0.274545 0.000000
v -0.088388 0.274545 -0.036612
v -0.250000 0.000000 0.000000
v -0.230970 0.000000 -0.095671
v -0.163320 -0.113720 -0.163320
v -0.125000 -0.210128 -0.125000
v -0.067650 0.274545 -0.067649
v -0.125000 0.210128 -0.125000
v -0.176777 0.000000 -0.176777
v -0.163320 0.113720 -0.163320
v -0.067650 -0.274545 -0.067649
v -0.088388 -0.113720 -0.213388
v -0.067650 -0.210128 -0.163320
v -0.036612 0.274545 -0.088388
v -0.067650 0.210128 -0.163320
v -0.095671 0.000000 -0.230970
v -0.088388 0.113720 -0.213388
v -0.036612 -0.274545 -0.088388
v 0.000000 -0.113720 -0.230970
v 0.000000 -0.210128 -0.176777
v 0.000000 0.274545 -0.095671
v 0.000000 0.210128 -0.176777
v 0.000000 0.000000 -0.250000
v 0.000000 0.113720 -0.230970
v 0.000000 -0.274545 -0.095671
v 0.088388 -0.113720 -0.213388
v 0.067649 -0.210128 -0.163320
v 0.036612 0.274545 -0.088388
v 0.067649 0.210128 -0.163320
v 0.095671 0.000000 -0.230970
v 0.088388 0.113720 -0.213388
v 0.036612 -0.274545 -0.088388
v 0.163320 -0.113720 -0.163320
v 0.125000 -0.210128 -0.125000
v 0.067649 0.274545 -0.067649
v 0.125000 0.210128 -0.125000
v 0.176777 0.000000 -0.176777
v 0.163320 0.113720 -0.163320
v 0.067649 -0.274545 -0.067649
v 0.213388 -0.113720 -0.088388
v 0.163320 -0.210128 -0.067649
v 0.088388 0.274545 -0.036612
v 0.163320 0.210128 -0.067649
v 0.230970 0.000000 -0.095671
v 0.213388 0.113720 -0.088388
v 0.088388 -0.274545 -0.036612
v 0.230970 -0.113720 -0.000000
v 0.176777 -0.210128 -0.000000
v 0.095671 0.274545 0.000000
v 0.176777 0.210128 0.000000
v 0.250000 0.000000 0.000000
v 0.230970 0.113720 0.000000
v 0.095671 -0.274545 -0.000000
v 0.213388 -0.113720 0.088388
v 0.163320 -0.210128 0.067649
v 0.088388 0.274545 0.036612
v 0.163320 0.210128 0.067649
v 0.230970 -0.000000 0.095671
v 0.213388 0.113720 0.088388
v 0.088388 -0.274545 0.036612
v 0.163320 -0.113720 0.163320
v 0.125000 -0.210128 0.125000
v 0.067649 0.274545 0.067649
v 0.125000 0.210128 0.125000
v 0.176777 -0.000000 0.176777
v 0.163320 0.113720 0.163320
v 0.067649 -0.274545 0.067649
v 0.088388 -0.113720 0.213388
v 0.067649 -0.210128 0.163320
v 0.036612 0.274545 0.088388
v 0.067649 0.210128 0.163320
v 0.095671 -0.000000 0.230970
v 0.088388 0.113720 0.213388
v 0.036612 -0.274545 0.088388
v 0.000000 -0.113720 0.230970
v 0.000000 -0.210128 0.176777
v 0.000000 0.274545 0.095671
v 0.000000 0.210128 0.176777
v 0.000000 -0.000000 0.250000
v 0.000000 0.113720 0.230970
v 0.000000 -0.274545 0.095671
v -0.088388 -0.113720 0.213388
v -0.067650 -0.210128 0.163320
v -0.036612 0.274545 0.088388
v -0.067650 0.210128 0.163320
v -0.095671 -0.000000 0.230970
v -0.088388 0.113720 0.213388
v -0.036612 -0.274545 0.088388
v -0.163320 -0.113720 0.163320
v -0.125000 -0.210128 0.125000
v -0.067650 0.274545 0.067649
v -0.125000 0.210128 0.125000
v -0.176777 -0.000000 0.176777
v -0.163320 0.113720 0.163320
v -0.067650 -0.274545 0.067649
v -0.213388 -0.113720 0.088388
v -0.163320 -0.210128 0.067649
v -0.088388 0.274545 0.036612
v -0.163320 0.210128 0.067649
v -0.230970 -0.000000 0.095671
v -0.213388 0.113720 0.088388
v -0.088388 -0.274545 0.036612
v 0.000000 -0.297426 -0.000000
v 0.000000 0.297426 0.000000
vt 0.408392 0.398511
vt 0.338273 0.462971
vt 0.378295 0.385900
vt 0.312349 0.783078
vt 0.269748 0.695012
vt 0.331355 0.706738
vt 0.387712 0.479925
vt 0.308123 0.539086
vt 0.291670 0.864493
vt 0.261050 0.775226
vt 0.350031 0.631501
vt 0.368706 0.556264
vt 0.285424 0.616402
vt 0.289298 0.435525
vt 0.226269 0.865623
vt 0.206194 0.777063
vt 0.244440 0.514888
vt 0.202803 0.688726
vt 0.215548 0.600385
vt 0.351435 0.364443
vt 0.239992 0.393789
vt 0.193458 0.881320
vt 0.145973 0.791506
vt 0.133360 0.582287
vt 0.172660 0.479893
vt 0.329835 0.333219
vt 0.124865 0.689690
vt 0.191432 0.330029
vt 0.164188 0.909492
vt 0.079222 0.824872
vt 0.027235 0.559839
vt 0.085797 0.425630
vt 0.317357 0.290977
vt 0.027234 0.702691
vt 0.621440 0.438132
vt 0.575798 0.573314
vt 0.554690 0.471499
vt 0.383307 0.972027
vt 0.460671 0.869215
vt 0.509231 0.932974
vt 0.673428 0.703164
vt 0.673428 0.560313
vt 0.528003 0.783110
vt 0.567303 0.680716
vt 0.536474 0.353513
vt 0.507205 0.381685
vt 0.614866 0.837373
vt 0.494469 0.485941
vt 0.370829 0.929785
vt 0.411365 0.827478
vt 0.497860 0.574278
vt 0.456223 0.748115
vt 0.485115 0.662619
vt 0.474394 0.397382
vt 0.430915 0.567992
vt 0.439613 0.487778
vt 0.322369 0.877103
vt 0.362390 0.800033
vt 0.415239 0.646602
vt 0.441158 0.402523
vt 0.392540 0.723918
vt 0.388314 0.479926
vt 0.292272 0.864493
vt 0.312951 0.783079
vt 0.350632 0.631502
vt 0.369308 0.556265
vt 0.408993 0.398512
vt 0.331956 0.706739
vt 0.308725 0.539087
vt 0.338875 0.462972
vt 0.261652 0.775227
vt 0.270350 0.695013
vt 0.286026 0.616403
vt 0.378896 0.385901
vt 0.289900 0.435526
vt 0.260107 0.860482
vt 0.206796 0.777064
vt 0.245041 0.514889
vt 0.203404 0.688727
vt 0.216150 0.600386
vt 0.352037 0.364444
vt 0.173261 0.479894
vt 0.240593 0.393789
vt 0.194060 0.881321
vt 0.146575 0.791507
vt 0.133961 0.582289
vt 0.330436 0.333219
vt 0.125466 0.689691
vt 0.192033 0.330030
vt 0.164791 0.909493
vt 0.079824 0.824874
vt 0.027836 0.559841
vt 0.086398 0.425631
vt 0.317958 0.290977
vt 0.027836 0.702693
vt 0.620838 0.438131
vt 0.575196 0.573312
vt 0.554088 0.471497
vt 0.382706 0.972026
vt 0.460070 0.869214
vt 0.508631 0.932973
vt 0.672826 0.703162
vt 0.672826 0.560311
vt 0.527402 0.783109
vt 0.566701 0.680715
vt 0.535872 0.353512
vt 0.506603 0.381684
vt 0.614264 0.837371
vt 0.497258 0.574277
vt 0.493867 0.485940
vt 0.370228 0.929784
vt 0.410764 0.827477
vt 0.455621 0.748114
vt 0.484513 0.662617
vt 0.473792 0.397381
vt 0.430313 0.567991
vt 0.439011 0.487777
vt 0.348627 0.898560
vt 0.361788 0.800032
vt 0.414637 0.646601
vt 0.440556 0.402522
vt 0.391938 0.723917
vt 0.434920 0.301760
vt 0.265142 0.961245
vt 0.259506 0.860482
vt 0.435522 0.301761
vt 0.265743 0.961244
vt 0.349228 0.898561
vt 0.226871 0.865623
vt 0.321767 0.877103
vn -0.4590 -0.8884 -0.0000
vn -0.7121 -0.6371 -0.2950
vn -0.4241 -0.8884 -0.1757
vn -0.7708 0.6371 0.0000
vn -0.8734 0.3260 -0.3618
vn -0.9454 0.3260 0.0000
vn -0.7708 -0.6371 -0.0000
vn -0.8734 -0.3260 -0.3618
vn -0.4590 0.8884 -0.0000
vn -0.7121 0.6371 -0.2950
vn -1.0000 0.0000 0.0000
vn -0.9454 -0.3260 -0.0000
vn -0.9239 0.0000 -0.3827
vn -0.5450 -0.6371 -0.5450
vn -0.3246 0.8884 -0.3246
vn -0.5450 0.6371 -0.5450
vn -0.6685 -0.3260 -0.6685
vn -0.6685 0.3260 -0.6685
vn -0.7071 -0.0000 -0.7071
vn -0.3246 -0.8884 -0.3246
vn -0.2950 -0.6371 -0.7121
vn -0.1757 0.8884 -0.4241
vn -0.2950 0.6371 -0.7121
vn -0.3827 0.0000 -0.9239
vn -0.3618 -0.3260 -0.8734
vn -0.1757 -0.8884 -0.4241
vn -0.3618 0.3260 -0.8734
vn 0.0000 -0.6371 -0.7708
vn 0.0000 0.8884 -0.4590
vn 0.0000 0.6371 -0.7708
vn -0.0000 0.0000 -1.0000
vn 0.0000 -0.3260 -0.9454
vn 0.0000 -0.8884 -0.4590
vn 0.0000 0.3260 -0.9454
vn 0.3618 -0.3260 -0.8734
vn 0.2950 -0.6371 -0.7121
vn 0.2950 0.6371 -0.7121
vn 0.3618 0.3260 -0.8734
vn 0.3827 0.0000 -0.9239
vn 0.1757 -0.8884 -0.4241
vn 0.5450 -0.6371 -0.5450
vn 0.1757 0.8884 -0.4241
vn 0.5450 0.6371 -0.5450
vn 0.6685 -0.3260 -0.6685
vn 0.6685 0.3260 -0.6685
vn 0.7071 -0.0000 -0.7071
vn 0.3246 -0.8884 -0.3246
vn 0.8734 -0.3260 -0.3618
vn 0.7121 -0.6371 -0.2950
vn 0.4241 0.8884 -0.1757
vn 0.7121 0.6371 -0.2950
vn 0.9239 0.0000 -0.3827
vn 0.4241 -0.8884 -0.1757
vn 0.8734 0.3260 -0.3618
vn 0.7708 -0.6371 -0.0000
vn 0.4590 0.8884 0.0000
vn 0.7708 0.6371 0.0000
vn 1.0000 -0.0000 -0.0000
vn 0.9454 -0.3260 -0.0000
vn 0.4590 -0.8884 0.0000
vn 0.9454 0.3260 0.0000
vn 0.8734 -0.3260 0.3618
vn 0.7121 -0.6371 0.2950
vn 0.7121 0.6371 0.2950
vn 0.8734 0.3260 0.3618
vn 0.9239 -0.0000 0.3827
vn 0.4241 -0.8884 0.1757
vn 0.5450 -0.6371 0.5450
vn 0.4241 0.8884 0.1757
vn 0.5450 0.6371 0.5450
vn 0.6685 -0.3260 0.6685
vn 0.6685 0.3260 0.6685
vn 0.7071 0.0000 0.7071
vn 0.3246 -0.8884 0.3246
vn 0.3618 -0.3260 0.8734
vn 0.2950 -0.6371 0.7121
vn 0.1757 0.8884 0.4241
vn 0.2950 0.6371 0.7121
vn 0.3827 -0.0000 0.9239
vn 0.1757 -0.8884 0.4241
vn 0.3618 0.3260 0.8734
vn 0.0000 -0.6371 0.7708
vn 0.0000 0.8884 0.4590
vn 0.0000 0.6371 0.7708
vn -0.0000 -0.0000 1.0000
vn 0.0000 -0.3260 0.9454
vn 0.0000 -0.8884 0.4590
vn 0.0000 0.3260 0.9454
vn -0.3618 -0.3260 0.8734
vn -0.2950 -0.6371 0.7121
vn -0.2950 0.6371 0.7121
vn -0.3618 0.3260 0.8734
vn -0.3827 -0.0000 0.9239
vn -0.1757 -0.8884 0.4241
vn -0.6685 -0.3260 0.6685
vn -0.5450 -0.6371 0.5450
vn -0.1757 0.8884 0.4241
vn -0.5450 0.6371 0.5450
vn -0.6685 0.3260 0.6685
vn -0.7071 0.0000 0.7071
vn -0.3246 -0.8884 0.3246
vn -0.8734 -0.3260 0.3618
vn -0.7121 -0.6371 0.2950
vn -0.3246 0.8884 0.3246
vn -0.7121 0.6371 0.2950
vn -0.9239 -0.0000 0.3827
vn -0.4241 -0.8884 0.1756
vn -0.8734 0.3260 0.3618
vn 0.0000 -1.0000 0.0000
vn 0.0000 1.0000 0.0000
vn -0.4241 0.8884 -0.1757
vn 0.3246 0.8884 -0.3246
vn 0.3246 0.8884 0.3246
vn -0.4241 0.8884 0.1756
s 1
f 1/1/1 3/2/2 4/3/3
f 6/4/4 8/5/5 5/6/6
f 2/7/7 10/8/8 3/2/2
f 11/9/9 7/10/10 6/4/4
f 13/11/11 10/8/8 9/12/12
f 13/11/11 8/5/5 14/13/13
f 10/8/8 16/14/14 3/2/2
f 7/10/10 17/15/15 18/16/16
f 14/13/13 15/17/17 10/8/8
f 14/13/13 20/18/18 19/19/19
f 3/2/2 21/20/20 4/3/3
f 8/5/5 18/16/16 20/18/18
f 15/17/17 23/21/21 16/14/14
f 18/16/16 24/22/22 25/23/23
f 15/17/17 26/24/24 22/25/25
f 20/18/18 26/24/24 19/19/19
f 16/14/14 28/26/26 21/20/20
f 20/18/18 25/23/23 27/27/27
f 22/25/25 30/28/28 23/21/21
f 25/23/23 31/29/29 32/30/30
f 22/25/25 33/31/31 29/32/32
f 27/27/27 33/31/31 26/24/24
f 23/21/21 35/33/33 28/26/26
f 27/27/27 32/30/30 34/34/34
f 30/35/28 36/36/35 37/37/36
f 31/38/29 39/39/37 32/40/30
f 33/41/31 36/36/35 29/42/32
f 33/41/31 41/43/38 40/44/39
f 35/45/33 37/37/36 42/46/40
f 32/40/30 41/43/38 34/47/34
f 36/36/35 44/48/41 37/37/36
f 38/49/42 46/50/43 39/39/37
f 40/44/39 43/51/44 36/36/35
f 40/44/39 48/52/45 47/53/46
f 42/46/40 44/48/41 49/54/47
f 41/43/38 46/50/43 48/52/45
f 44/48/41 50/55/48 51/56/49
f 46/50/43 52/57/50 53/58/51
f 43/51/44 54/59/52 50/55/48
f 48/52/45 54/59/52 47/53/46
f 44/48/41 56/60/53 49/54/47
f 46/50/43 55/61/54 48/52/45
f 50/55/48 58/62/55 51/56/49
f 53/58/51 59/63/56 60/64/57
f 50/55/48 61/65/58 57/66/59
f 55/61/54 61/65/58 54/59/52
f 51/56/49 63/67/60 56/60/53
f 55/61/54 60/64/57 62/68/61
f 58/62/55 64/69/62 65/70/63
f 59/63/56 67/71/64 60/64/57
f 61/65/58 64/69/62 57/66/59
f 61/65/58 69/72/65 68/73/66
f 63/67/60 65/70/63 70/74/67
f 60/64/57 69/72/65 62/68/61
f 64/69/62 72/75/68 65/70/63
f 66/76/69 74/77/70 67/71/64
f 68/73/66 71/78/71 64/69/62
f 68/73/66 76/79/72 75/80/73
f 70/74/67 72/75/68 77/81/74
f 69/72/65 74/77/70 76/79/72
f 72/75/68 78/82/75 79/83/76
f 74/77/70 80/84/77 81/85/78
f 71/78/71 82/86/79 78/82/75
f 76/79/72 82/86/79 75/80/73
f 72/75/68 84/87/80 77/81/74
f 74/77/70 83/88/81 76/79/72
f 78/82/75 86/89/82 79/83/76
f 81/85/78 87/90/83 88/91/84
f 78/82/75 89/92/85 85/93/86
f 83/88/81 89/92/85 82/86/79
f 79/83/76 91/94/87 84/87/80
f 83/88/81 88/91/84 90/95/88
f 86/96/82 92/97/89 93/98/90
f 87/99/83 95/100/91 88/101/84
f 89/102/85 92/97/89 85/103/86
f 89/102/85 97/104/92 96/105/93
f 91/106/87 93/98/90 98/107/94
f 88/101/84 97/104/92 90/108/88
f 93/98/90 99/109/95 100/110/96
f 94/111/97 102/112/98 95/100/91
f 96/105/93 99/109/95 92/97/89
f 96/105/93 104/113/99 103/114/100
f 98/107/94 100/110/96 105/115/101
f 95/100/91 104/113/99 97/104/92
f 100/110/96 106/116/102 107/117/103
f 101/118/104 109/119/105 102/112/98
f 99/109/95 110/120/106 106/116/102
f 104/113/99 110/120/106 103/114/100
f 105/115/101 107/117/103 112/121/107
f 102/112/98 111/122/108 104/113/99
f 113/123/109 1/1/1 4/3/3
f 11/9/9 114/124/110 12/125/111
f 113/123/109 4/3/3 21/20/20
f 12/125/111 114/124/110 17/15/15
f 113/123/109 21/20/20 28/26/26
f 17/15/15 114/124/110 24/22/22
f 113/123/109 28/26/26 35/33/33
f 24/22/22 114/124/110 31/29/29
f 113/126/109 35/45/33 42/46/40
f 31/38/29 114/127/110 38/49/42
f 113/126/109 42/46/40 49/54/47
f 38/49/42 114/127/110 45/128/112
f 113/126/109 49/54/47 56/60/53
f 45/128/112 114/127/110 52/57/50
f 113/126/109 56/60/53 63/67/60
f 52/57/50 114/127/110 59/63/56
f 113/126/109 63/67/60 70/74/67
f 59/63/56 114/127/110 66/76/69
f 113/126/109 70/74/67 77/81/74
f 66/76/69 114/127/110 73/129/113
f 113/126/109 77/81/74 84/87/80
f 73/129/113 114/127/110 80/84/77
f 113/126/109 84/87/80 91/94/87
f 80/84/77 114/127/110 87/90/83
f 113/123/109 91/106/87 98/107/94
f 87/99/83 114/124/110 94/111/97
f 113/123/109 98/107/94 105/115/101
f 94/111/97 114/124/110 101/118/104
f 113/123/109 105/115/101 112/121/107
f 101/118/104 114/124/110 108/130/114
f 106/116/102 2/7/7 107/117/103
f 109/119/105 11/9/9 6/4/4
f 106/116/102 13/11/11 9/12/12
f 113/123/109 112/121/107 1/1/1
f 108/130/114 114/124/110 11/9/9
f 111/122/108 13/11/11 110/120/106
f 107/117/103 1/1/1 112/121/107
f 111/122/108 6/4/4 5/6/6
f 1/1/1 2/7/7 3/2/2
f 6/4/4 7/10/10 8/5/5
f 2/7/7 9/12/12 10/8/8
f 11/9/9 12/125/111 7/10/10
f 13/11/11 14/13/13 10/8/8
f 13/11/11 5/6/6 8/5/5
f 10/8/8 15/17/17 16/14/14
f 7/10/10 12/125/111 17/15/15
f 14/13/13 19/19/19 15/17/17
f 14/13/13 8/5/5 20/18/18
f 3/2/2 16/14/14 21/20/20
f 8/5/5 7/10/10 18/16/16
f 15/17/17 22/25/25 23/21/21
f 18/16/16 17/15/15 24/22/22
f 15/17/17 19/19/19 26/24/24
f 20/18/18 27/27/27 26/24/24
f 16/14/14 23/21/21 28/26/26
f 20/18/18 18/16/16 25/23/23
f 22/25/25 29/32/32 30/28/28
f 25/23/23 24/22/22 31/29/29
f 22/25/25 26/24/24 33/31/31
f 27/27/27 34/34/34 33/31/31
f 23/21/21 30/28/28 35/33/33
f 27/27/27 25/23/23 32/30/30
f 30/35/28 29/42/32 36/36/35
f 31/38/29 38/49/42 39/39/37
f 33/41/31 40/44/39 36/36/35
f 33/41/31 34/47/34 41/43/38
f 35/45/33 30/35/28 37/37/36
f 32/40/30 39/39/37 41/43/38
f 36/36/35 43/51/44 44/48/41
f 38/49/42 45/128/112 46/50/43
f 40/44/39 47/53/46 43/51/44
f 40/44/39 41/43/38 48/52/45
f 42/46/40 37/37/36 44/48/41
f 41/43/38 39/39/37 46/50/43
f 44/48/41 43/51/44 50/55/48
f 46/50/43 45/128/112 52/57/50
f 43/51/44 47/53/46 54/59/52
f 48/52/45 55/61/54 54/59/52
f 44/48/41 51/56/49 56/60/53
f 46/50/43 53/58/51 55/61/54
f 50/55/48 57/66/59 58/62/55
f 53/58/51 52/57/50 59/63/56
f 50/55/48 54/59/52 61/65/58
f 55/61/54 62/68/61 61/65/58
f 51/56/49 58/62/55 63/67/60
f 55/61/54 53/58/51 60/64/57
f 58/62/55 57/66/59 64/69/62
f 59/63/56 66/76/69 67/71/64
f 61/65/58 68/73/66 64/69/62
f 61/65/58 62/68/61 69/72/65
f 63/67/60 58/62/55 65/70/63
f 60/64/57 67/71/64 69/72/65
f 64/69/62 71/78/71 72/75/68
f 66/76/69 73/129/113 74/77/70
f 68/73/66 75/80/73 71/78/71
f 68/73/66 69/72/65 76/79/72
f 70/74/67 65/70/63 72/75/68
f 69/72/65 67/71/64 74/77/70
f 72/75/68 71/78/71 78/82/75
f 74/77/70 73/129/113 80/84/77
f 71/78/71 75/80/73 82/86/79
f 76/79/72 83/88/81 82/86/79
f 72/75/68 79/83/76 84/87/80
f 74/77/70 81/85/78 83/88/81
f 78/82/75 85/93/86 86/89/82
f 81/85/78 80/84/77 87/90/83
f 78/82/75 82/86/79 89/92/85
f 83/88/81 90/95/88 89/92/85
f 79/83/76 86/89/82 91/94/87
f 83/88/81 81/85/78 88/91/84
f 86/96/82 85/103/86 92/97/89
f 87/99/83 94/111/97 95/100/91
f 89/102/85 96/105/93 92/97/89
f 89/102/85 90/108/88 97/104/92
f 91/106/87 86/96/82 93/98/90
f 88/101/84 95/100/91 97/104/92
f 93/98/90 92/97/89 99/109/95
f 94/111/97 101/118/104 102/112/98
f 96/105/93 103/114/100 99/109/95
f 96/105/93 97/104/92 104/113/99
f 98/107/94 93/98/90 100/110/96
f 95/100/91 102/112/98 104/113/99
f 100/110/96 99/109/95 106/116/102
f 101/118/104 108/130/114 109/119/105
f 99/109/95 103/114/100 110/120/106
f 104/113/99 111/122/108 110/120/106
f 105/115/101 100/110/96 107/117/103
f 102/112/98 109/119/105 111/122/108
f 106/116/102 9/12/12 2/7/7
f 109/119/105 108/130/114 11/9/9
f 106/116/102 110/120/106 13/11/11
f 111/122/108 5/6/6 13/11/11
f 107/117/103 2/7/7 1/1/1
f 111/122/108 109/119/105 6/4/4
